<svg width="343" height="54" viewBox="0 0 343 54" fill="none" xmlns="http://www.w3.org/2000/svg">
<path d="M10.7656 51H0.675781V0.585938H35.9727V10.6758H10.7656V20.7656H25.8828V30.8555H10.7656V51ZM51.2656 51H41.1758V0.585938H51.2656V51ZM101.047 25.793C101.047 28.1133 100.742 30.3516 100.133 32.5078C99.5469 34.6406 98.7031 36.6445 97.6016 38.5195C96.5 40.3711 95.1875 42.0703 93.6641 43.6172C92.1406 45.1406 90.4414 46.4531 88.5664 47.5547C86.6914 48.6562 84.6758 49.5117 82.5195 50.1211C80.3867 50.707 78.1602 51 75.8398 51H60.6523V0.585938H75.8398C78.1602 0.585938 80.3867 0.890625 82.5195 1.5C84.6758 2.08594 86.6914 2.92969 88.5664 4.03125C90.4414 5.13281 92.1406 6.45703 93.6641 8.00391C95.1875 9.52734 96.5 11.2266 97.6016 13.1016C98.7031 14.9531 99.5469 16.957 100.133 19.1133C100.742 21.2461 101.047 23.4727 101.047 25.793ZM90.957 25.793C90.957 23.707 90.5586 21.75 89.7617 19.9219C88.9883 18.0938 87.9102 16.5 86.5273 15.1406C85.168 13.7578 83.5625 12.668 81.7109 11.8711C79.8828 11.0742 77.9258 10.6758 75.8398 10.6758H70.8125V40.9102H75.8398C77.9258 40.9102 79.8828 40.5234 81.7109 39.75C83.5625 38.9531 85.168 37.875 86.5273 36.5156C87.9102 35.1328 88.9883 33.5273 89.7617 31.6992C90.5586 29.8477 90.957 27.8789 90.957 25.793ZM148.156 25.793C148.156 28.1133 147.852 30.3516 147.242 32.5078C146.656 34.6406 145.812 36.6445 144.711 38.5195C143.609 40.3711 142.297 42.0703 140.773 43.6172C139.25 45.1406 137.551 46.4531 135.676 47.5547C133.801 48.6562 131.785 49.5117 129.629 50.1211C127.496 50.707 125.27 51 122.949 51H107.762V0.585938H122.949C125.27 0.585938 127.496 0.890625 129.629 1.5C131.785 2.08594 133.801 2.92969 135.676 4.03125C137.551 5.13281 139.25 6.45703 140.773 8.00391C142.297 9.52734 143.609 11.2266 144.711 13.1016C145.812 14.9531 146.656 16.957 147.242 19.1133C147.852 21.2461 148.156 23.4727 148.156 25.793ZM138.066 25.793C138.066 23.707 137.668 21.75 136.871 19.9219C136.098 18.0938 135.02 16.5 133.637 15.1406C132.277 13.7578 130.672 12.668 128.82 11.8711C126.992 11.0742 125.035 10.6758 122.949 10.6758H117.922V40.9102H122.949C125.035 40.9102 126.992 40.5234 128.82 39.75C130.672 38.9531 132.277 37.875 133.637 36.5156C135.02 35.1328 136.098 33.5273 136.871 31.6992C137.668 29.8477 138.066 27.8789 138.066 25.793ZM190.168 51H154.871V0.585938H164.961V40.9102H190.168V51ZM230 51H195.441V0.585938H230V10.6758H205.531V20.7656H222.09V30.8555H205.531V40.9102H230V51ZM247.859 47.4141C247.859 48.2578 247.707 49.0547 247.402 49.8047C247.098 50.5312 246.676 51.1641 246.137 51.7031C245.598 52.2422 244.965 52.6641 244.238 52.9688C243.512 53.2969 242.727 53.4609 241.883 53.4609C241.062 53.4609 240.277 53.2969 239.527 52.9688C238.801 52.6641 238.156 52.2422 237.594 51.7031C237.055 51.1641 236.621 50.5312 236.293 49.8047C235.988 49.0547 235.836 48.2578 235.836 47.4141C235.836 46.5938 235.988 45.8203 236.293 45.0938C236.621 44.3672 237.055 43.7344 237.594 43.1953C238.156 42.6562 238.801 42.2344 239.527 41.9297C240.277 41.6016 241.062 41.4375 241.883 41.4375C242.727 41.4375 243.512 41.6016 244.238 41.9297C244.965 42.2344 245.598 42.6562 246.137 43.1953C246.676 43.7344 247.098 44.3672 247.402 45.0938C247.707 45.8203 247.859 46.5938 247.859 47.4141ZM295.109 45.9023C292.766 47.8945 290.152 49.4297 287.27 50.5078C284.387 51.5625 281.387 52.0898 278.27 52.0898C275.879 52.0898 273.57 51.7734 271.344 51.1406C269.141 50.5312 267.078 49.6641 265.156 48.5391C263.234 47.3906 261.477 46.0312 259.883 44.4609C258.289 42.8672 256.93 41.1094 255.805 39.1875C254.68 37.2422 253.801 35.1562 253.168 32.9297C252.559 30.7031 252.254 28.3945 252.254 26.0039C252.254 23.6133 252.559 21.3164 253.168 19.1133C253.801 16.9102 254.68 14.8477 255.805 12.9258C256.93 10.9805 258.289 9.22266 259.883 7.65234C261.477 6.05859 263.234 4.69922 265.156 3.57422C267.078 2.44922 269.141 1.58203 271.344 0.972656C273.57 0.339844 275.879 0.0234375 278.27 0.0234375C281.387 0.0234375 284.387 0.5625 287.27 1.64062C290.152 2.69531 292.766 4.21875 295.109 6.21094L289.836 15C288.312 13.4531 286.555 12.2461 284.562 11.3789C282.57 10.4883 280.473 10.043 278.27 10.043C276.066 10.043 273.992 10.4648 272.047 11.3086C270.125 12.1523 268.438 13.3008 266.984 14.7539C265.531 16.1836 264.383 17.8711 263.539 19.8164C262.695 21.7383 262.273 23.8008 262.273 26.0039C262.273 28.2305 262.695 30.3164 263.539 32.2617C264.383 34.207 265.531 35.9062 266.984 37.3594C268.438 38.8125 270.125 39.9609 272.047 40.8047C273.992 41.6484 276.066 42.0703 278.27 42.0703C279.535 42.0703 280.766 41.918 281.961 41.6133C283.156 41.3086 284.293 40.8867 285.371 40.3477V26.0039H295.109V45.9023ZM342.992 45.9023C340.648 47.8945 338.035 49.4297 335.152 50.5078C332.27 51.5625 329.27 52.0898 326.152 52.0898C323.762 52.0898 321.453 51.7734 319.227 51.1406C317.023 50.5312 314.961 49.6641 313.039 48.5391C311.117 47.3906 309.359 46.0312 307.766 44.4609C306.172 42.8672 304.812 41.1094 303.688 39.1875C302.562 37.2422 301.684 35.1562 301.051 32.9297C300.441 30.7031 300.137 28.3945 300.137 26.0039C300.137 23.6133 300.441 21.3164 301.051 19.1133C301.684 16.9102 302.562 14.8477 303.688 12.9258C304.812 10.9805 306.172 9.22266 307.766 7.65234C309.359 6.05859 311.117 4.69922 313.039 3.57422C314.961 2.44922 317.023 1.58203 319.227 0.972656C321.453 0.339844 323.762 0.0234375 326.152 0.0234375C329.27 0.0234375 332.27 0.5625 335.152 1.64062C338.035 2.69531 340.648 4.21875 342.992 6.21094L337.719 15C336.195 13.4531 334.438 12.2461 332.445 11.3789C330.453 10.4883 328.355 10.043 326.152 10.043C323.949 10.043 321.875 10.4648 319.93 11.3086C318.008 12.1523 316.32 13.3008 314.867 14.7539C313.414 16.1836 312.266 17.8711 311.422 19.8164C310.578 21.7383 310.156 23.8008 310.156 26.0039C310.156 28.2305 310.578 30.3164 311.422 32.2617C312.266 34.207 313.414 35.9062 314.867 37.3594C316.32 38.8125 318.008 39.9609 319.93 40.8047C321.875 41.6484 323.949 42.0703 326.152 42.0703C327.418 42.0703 328.648 41.918 329.844 41.6133C331.039 41.3086 332.176 40.8867 333.254 40.3477V26.0039H342.992V45.9023Z" fill="white"/>
</svg>
